PathFileType	4	(X/Y/Z)	C:\Users\Biomechanik\SynologyDrive\AlexP\Athlete_03\Athlete_3_25_03_31\Walking_02\marker_experimental.trc
DataRate	CameraRate	NumFrames	NumMarkers	Units	OrigDataRate	OrigDataStartFrame	OrigNumFrames
200.000000	200.000000	4	53	mm	200.000000	308	493
Frame#	Time	GLAB			RFHD			LFHD			C7			T6			SPINMOL			SPINM2			SPINM3			T12			BELTOL			BELT2			BELT3			SACROL			SACR2			SACR3			LTHOL			LTH2			LTH3			LSHAOL			LSHA2			LSHA3			LHEE			LTOE			LM5			RTHOL			RTH2			RSHAOL			RSHA2			RSHA3			RHEE			RTOE			RM5			STRN			XIPH			LACR			LUAOL			LUA2			LUA3			LLAOL			LLA2			LLA3			LWRR			LWRU			RACR			RUAOL			RUA2			RUA3			RLAOL			RLA2			RLA3			RWRR			RWRU			RTH3			
		X1	Y1	Z1	X2	Y2	Z2	X3	Y3	Z3	X4	Y4	Z4	X5	Y5	Z5	X6	Y6	Z6	X7	Y7	Z7	X8	Y8	Z8	X9	Y9	Z9	X10	Y10	Z10	X11	Y11	Z11	X12	Y12	Z12	X13	Y13	Z13	X14	Y14	Z14	X15	Y15	Z15	X16	Y16	Z16	X17	Y17	Z17	X18	Y18	Z18	X19	Y19	Z19	X20	Y20	Z20	X21	Y21	Z21	X22	Y22	Z22	X23	Y23	Z23	X24	Y24	Z24	X25	Y25	Z25	X26	Y26	Z26	X27	Y27	Z27	X28	Y28	Z28	X29	Y29	Z29	X30	Y30	Z30	X31	Y31	Z31	X32	Y32	Z32	X33	Y33	Z33	X34	Y34	Z34	X35	Y35	Z35	X36	Y36	Z36	X37	Y37	Z37	X38	Y38	Z38	X39	Y39	Z39	X40	Y40	Z40	X41	Y41	Z41	X42	Y42	Z42	X43	Y43	Z43	X44	Y44	Z44	X45	Y45	Z45	X46	Y46	Z46	X47	Y47	Z47	X48	Y48	Z48	X49	Y49	Z49	X50	Y50	Z50	X51	Y51	Z51	X52	Y52	Z52	X53	Y53	Z53	

309	1.54	1486.217163085938	1603.963745117188	291.5177001953128	1435.606323242188	1630.465209960938	356.1846618652347	1445.244018554688	1630.593994140625	217.8261413574221	1256.70068359375	1449.173950195312	274.5658874511721	1197.276000976562	1281.285522460938	265.597839355469	1190.097045898438	1241.501953125	243.5171508789065	1184.38134765625	1233.143798828125	292.8848266601565	1194.73486328125	1176.90771484375	258.680603027344	1219.06982421875	1110.551025390625	260.5363769531252	1181.037719726562	1074.70263671875	245.4700012207034	1180.766723632812	1072.614013671875	295.7197265625002	1176.836059570312	1012.364135742188	266.5238037109377	1196.838012695312	963.1346435546876	236.2284851074221	1195.386596679688	959.4473876953126	287.5246582031252	1182.035034179688	901.9862670898439	257.428894042969	1370.378295898438	684.7510375976564	54.05319213867212	1344.099487304688	614.9652099609376	81.20969390869165	1388.85546875	626.9388427734376	61.42626953125026	1344.064697265625	410.4978637695313	52.62969207763697	1269.294067382812	393.0993347167969	73.77498626709007	1308.554077148438	362.0018920898438	67.75090789794946	1145.204956054688	264.4875183105469	179.5041503906252	1279.826538085938	91.09962463378915	173.439392089844	1225.889770507812	103.126564025879	82.4663009643557	1280.777709960938	690.4033813476564	433.7391662597659	1339.14697265625	637.5975952148439	440.9492797851565	1271.8193359375	338.8967590332032	408.5018310546877	1305.013916015625	267.6773376464844	406.1890258789065	1259.230102539062	279.9570312500001	391.395935058594	1229.631469726562	67.04283142089851	277.9891357421877	1442.874389648438	48.51136398315438	288.5791625976565	1388.842895507812	39.06251907348641	388.9075927734377	1425.075073242188	1348.062133789062	273.4772949218753	1439.089721679688	1204.0517578125	270.4021911621097	1333.639892578125	1415.937622070312	99.46747589111352	1321.72119140625	1263.87841796875	-4.782089233398195	1305.640258789062	1203.2890625	-25.51916122436499	1352.830078125	1205.59765625	-4.507866859435786	1338.792724609375	1001.461181640625	-58.9540405273435	1304.348510742188	931.8927001953126	-43.27232742309546	1349.853271484375	941.0889892578126	-61.25488662719702	1378.61962890625	841.2307128906251	-67.99615478515599	1422.918701171875	843.6162719726564	-0.8334581851956615	1338.4443359375	1399.2197265625	443.1235046386721	1333.776733398438	1247.802124023438	540.0535888671877	1363.786010742188	1189.103759765625	543.059509277344	1315.301391601562	1188.224365234375	560.9541625976565	1387.300170898438	972.9655151367189	580.7563476562502	1456.613159179688	936.6123046875001	596.523132324219	1414.763305664062	916.8179321289064	577.6860961914065	1474.697875976562	848.8855590820314	579.8072509765627	1507.83740234375	849.2034912109376	505.862731933594	1293.36865234375	631.5370483398439	423.0723266601565	
310	1.545	1492.638793945312	1604.312133789062	291.1133117675784	1442.068969726562	1630.937622070312	355.7680358886722	1451.614379882812	1630.808471679688	217.402770996094	1263.1162109375	1449.494262695312	274.5727233886721	1203.676879882812	1281.62060546875	265.8171386718752	1196.520141601562	1241.833618164062	243.7702789306643	1190.765625	1233.49365234375	293.136657714844	1201.106079101562	1177.254638671875	258.9681091308596	1225.417114257812	1110.8837890625	260.7893371582034	1187.251342773438	1075.054931640625	245.404251098633	1186.8203125	1072.917236328125	295.6518249511721	1183.046142578125	1012.682556152344	266.3822326660159	1203.301879882812	963.4973754882814	236.0003356933596	1201.532470703125	959.6619873046876	287.2815856933596	1188.314086914062	902.2921142578126	256.9443359375002	1379.959106445312	685.8179321289064	54.1311874389651	1353.652954101562	615.6605224609376	80.07508087158227	1398.681518554688	628.1668090820314	61.44566726684596	1356.55712890625	408.9817810058594	53.42302703857447	1282.0908203125	389.8580627441407	74.12307739257837	1322.15869140625	359.6719970703126	68.46928405761743	1160.399291992188	257.8862304687501	179.7691497802736	1301.026733398438	89.3054733276368	173.7698211669924	1246.706420898438	99.42501831054695	82.75664520263695	1284.302978515625	691.1154785156251	433.6467285156252	1342.094482421875	637.7597656250001	441.1210632324221	1272.740844726562	339.4288940429688	408.1338500976565	1305.611083984375	268.0802001953126	406.0917968750002	1259.969360351562	280.5594177246094	391.0129394531252	1229.978515625	67.6428298950196	277.5771484375002	1443.016845703125	48.37614440917977	288.5838928222659	1388.87255859375	39.0649948120118	388.8845520019534	1431.433227539062	1348.408569335938	273.5210876464847	1445.41015625	1204.3427734375	270.6921081542972	1339.88818359375	1416.0693359375	99.47274017334009	1327.192749023438	1263.895874023438	-4.681580066680665	1310.841918945312	1203.317016601562	-25.31397628784156	1358.11767578125	1205.518188476562	-4.486176013946284	1342.7607421875	1001.4423828125	-58.68533706665014	1307.828979492188	932.1415405273439	-42.83036422729468	1353.28466796875	940.9796142578126	-61.08097839355444	1381.216552734375	840.8903198242189	-67.99681091308568	1425.836181640625	842.8511352539064	-1.068542599677778	1344.9072265625	1399.90771484375	443.1020812988284	1340.822998046875	1248.798095703125	540.404235839844	1371.108642578125	1190.226806640625	543.5355224609377	1322.642578125	1189.170654296875	561.430358886719	1396.914672851562	974.3657836914064	581.2005615234377	1466.867919921875	939.0804443359376	596.5478515625002	1425.179321289062	918.7139282226564	577.8572387695315	1486.266479492188	851.6962280273439	579.4094238281252	1519.29541015625	852.9117431640626	505.3994750976565	1296.36328125	632.1472778320314	422.9722900390627	
311	1.55	1499.060668945312	1604.606811523438	290.6835632324222	1448.533569335938	1631.35595703125	355.3269958496097	1457.979614257812	1630.963012695312	216.9554138183596	1269.539306640625	1449.756225585938	274.5639648437502	1210.079956054688	1281.902709960938	266.0118713378909	1202.943969726562	1242.11279296875	243.9953613281252	1197.146118164062	1233.791015625	293.3609008789065	1207.472290039062	1177.549194335938	259.2268981933596	1231.758422851562	1111.16162109375	261.0076904296877	1193.47119140625	1075.3623046875	245.2695465087893	1192.86376953125	1073.173095703125	295.5157470703127	1189.241577148438	1012.957580566406	266.1685485839846	1209.734741210938	963.7979125976564	235.7570037841799	1207.664306640625	959.8430786132814	287.0252380371096	1194.596435546875	902.5420532226564	256.4826354980471	1389.407348632812	686.8370361328126	54.21610641479518	1363.112182617188	616.3101196289064	78.94434356689479	1408.389526367188	629.3464965820314	61.48220443725612	1368.944580078125	407.3797607421876	54.26510620117212	1294.86181640625	386.4598693847657	74.58013153076196	1335.718017578125	357.2421264648438	69.20478057861352	1175.83837890625	251.0296020507813	179.9895477294924	1322.33984375	87.50028991699227	174.0754241943362	1267.705932617188	95.67906188964851	83.01703643798851	1287.875122070312	691.7874755859376	433.5629577636721	1345.114990234375	637.8958129882814	441.2803344726565	1273.7666015625	339.9434509277344	407.7722778320315	1306.307006835938	268.4667663574219	405.9682312011721	1260.797485351562	281.1462707519532	390.6427001953127	1230.337646484375	68.24428558349616	277.1587524414065	1443.15869140625	48.22859954833993	288.575134277344	1388.905639648438	39.07316589355477	388.8511047363284	1437.800537109375	1348.685791015625	273.5524597167972	1451.734008789062	1204.565673828125	270.9715881347659	1346.149780273438	1416.136596679688	99.46575927734399	1332.66796875	1263.860107421875	-4.597135066985839	1316.04541015625	1203.295166015625	-25.13266181945777	1363.40625	1205.385620117188	-4.490867137908685	1346.737915039062	1001.381774902344	-58.44435501098608	1311.339721679688	932.3428955078126	-42.40881729125952	1356.741333007812	940.8316040039064	-60.92793655395483	1383.857055664062	840.5228271484376	-68.00890350341771	1428.805419921875	842.0766601562501	-1.338053941726422	1351.375732421875	1400.52490234375	443.0653381347659	1347.8564453125	1249.73046875	540.736511230469	1378.409423828125	1191.281982421875	544.002136230469	1329.960083007812	1190.059936523438	561.8865356445315	1406.493041992188	975.7349853515626	581.6359863281252	1477.064331054688	941.5275268554689	596.561218261719	1435.568237304688	920.5909423828126	578.0115966796877	1497.7666015625	854.5039672851564	578.9949951171877	1530.692626953125	856.6373901367189	504.9337158203128	1299.422241210938	632.7252807617189	422.8740539550784	
312	1.555	1505.48388671875	1604.845947265625	290.2298278808597	1455.001220703125	1631.718383789062	354.8627929687503	1464.341064453125	1631.056396484375	216.4853515625003	1275.970825195312	1449.958740234375	274.5396423339846	1216.486694335938	1282.13037109375	266.1825256347659	1209.369140625	1242.338256835938	244.1928710937502	1203.524047851562	1234.035034179688	293.5580749511721	1213.834838867188	1177.7900390625	259.457214355469	1238.094848632812	1111.3837890625	261.1924743652346	1199.698364257812	1075.624877929688	245.070739746094	1198.900512695312	1073.382202148438	295.3159790039065	1195.423461914062	1013.190185546875	265.888854980469	1216.136108398438	964.0377197265626	235.498733520508	1213.782958984375	959.9919433593751	286.7559814453127	1200.88037109375	902.7374267578126	256.0437316894534	1398.714965820312	687.8036499023439	54.31062316894557	1372.479736328125	616.9099121093751	77.83757781982447	1417.97998046875	630.4717407226564	61.54377746582058	1381.22900390625	405.6956481933594	55.15056228637721	1307.610961914062	382.9159545898438	75.13658905029321	1349.233520507812	354.7212219238282	69.95107269287134	1191.531372070312	243.9415283203126	180.1599578857424	1343.752807617188	85.69892120361337	174.3525848388674	1288.879638671875	91.9098663330079	83.24235534667993	1291.500732421875	692.4163818359376	433.4879150390627	1348.2138671875	638.0017089843751	441.4255371093752	1274.898803710938	340.4382629394532	407.4187927246096	1307.103271484375	268.8340759277344	405.8200988769534	1261.716064453125	281.7156066894532	390.2866516113284	1230.707275390625	68.84535217285163	276.7348937988284	1443.299072265625	48.06929779052743	288.5513610839847	1388.942016601562	39.08748245239266	388.8063964843752	1444.177978515625	1348.891723632812	273.5719909667972	1458.062255859375	1204.71923828125	271.2406921386722	1352.426147460938	1416.138061523438	99.44658660888696	1338.149658203125	1263.770141601562	-4.528374671935789	1321.25244140625	1203.22216796875	-24.97059249877906	1368.699096679688	1205.19873046875	-4.520380973815667	1350.729614257812	1001.278259277344	-58.23118972778295	1314.885498046875	932.4956054687501	-42.0108261108396	1360.229248046875	940.6436767578126	-60.79594421386694	1386.545776367188	840.1264648437501	-68.03318786621068	1431.82958984375	841.2893066406251	-1.642143368720745	1357.849609375	1401.070434570312	443.0139465332034	1354.877319335938	1250.596313476562	541.0501708984377	1385.690795898438	1192.268798828125	544.4576416015627	1337.256103515625	1190.888793945312	562.3220214843752	1416.035766601562	977.0718383789064	582.0620117187502	1487.202880859375	943.9505615234376	596.560974121094	1445.9267578125	922.4470214843751	578.1489257812502	1509.196044921875	857.3043823242189	578.5635375976565	1542.023559570312	860.3743896484376	504.4645080566409	1302.551025390625	633.2664184570314	422.7777404785159	
